<mxfile host="app.diagrams.net" modified="2022-12-27T15:20:43.452Z" agent="5.0 (Macintosh; Intel Mac OS X 10_14_6) AppleWebKit/537.36 (KHTML, like Gecko) Chrome/108.0.0.0 Safari/537.36" version="20.7.4" etag="cmEkgaGIbS1HB4fOApiQ" type="github">
  <diagram id="jZ5jd8dbi2dYX-Txdn_M" name="第 1 页">
    <mxGraphModel dx="1248" dy="792" grid="1" gridSize="10" guides="1" tooltips="1" connect="1" arrows="1" fold="1" page="1" pageScale="1" pageWidth="827" pageHeight="1169" math="0" shadow="0">
      <root>
        <mxCell id="0" />
        <mxCell id="1" parent="0" />
        <mxCell id="N4EmXFboC65G07N66ozC-3" style="edgeStyle=orthogonalEdgeStyle;rounded=0;orthogonalLoop=1;jettySize=auto;html=1;entryX=0.5;entryY=0;entryDx=0;entryDy=0;startArrow=classic;startFill=1;" edge="1" parent="1" source="N4EmXFboC65G07N66ozC-1" target="N4EmXFboC65G07N66ozC-4">
          <mxGeometry relative="1" as="geometry">
            <mxPoint x="200" y="260" as="targetPoint" />
          </mxGeometry>
        </mxCell>
        <mxCell id="N4EmXFboC65G07N66ozC-33" value="验资" style="edgeLabel;html=1;align=center;verticalAlign=middle;resizable=0;points=[];" vertex="1" connectable="0" parent="N4EmXFboC65G07N66ozC-3">
          <mxGeometry x="-0.175" y="2" relative="1" as="geometry">
            <mxPoint x="-2" y="7" as="offset" />
          </mxGeometry>
        </mxCell>
        <mxCell id="N4EmXFboC65G07N66ozC-5" style="edgeStyle=orthogonalEdgeStyle;rounded=0;orthogonalLoop=1;jettySize=auto;html=1;entryX=0;entryY=0.5;entryDx=0;entryDy=0;" edge="1" parent="1" source="N4EmXFboC65G07N66ozC-1">
          <mxGeometry relative="1" as="geometry">
            <mxPoint x="340" y="185" as="targetPoint" />
          </mxGeometry>
        </mxCell>
        <mxCell id="N4EmXFboC65G07N66ozC-32" value="允许干预" style="edgeLabel;html=1;align=center;verticalAlign=middle;resizable=0;points=[];" vertex="1" connectable="0" parent="N4EmXFboC65G07N66ozC-5">
          <mxGeometry x="-0.325" y="1" relative="1" as="geometry">
            <mxPoint x="13" y="1" as="offset" />
          </mxGeometry>
        </mxCell>
        <mxCell id="N4EmXFboC65G07N66ozC-1" value="前台" style="rounded=0;whiteSpace=wrap;html=1;" vertex="1" parent="1">
          <mxGeometry x="140" y="160" width="120" height="50" as="geometry" />
        </mxCell>
        <mxCell id="N4EmXFboC65G07N66ozC-4" value="千目" style="rounded=0;whiteSpace=wrap;html=1;" vertex="1" parent="1">
          <mxGeometry x="140" y="290" width="120" height="50" as="geometry" />
        </mxCell>
        <mxCell id="N4EmXFboC65G07N66ozC-9" style="edgeStyle=orthogonalEdgeStyle;rounded=0;orthogonalLoop=1;jettySize=auto;html=1;entryX=0;entryY=0.5;entryDx=0;entryDy=0;entryPerimeter=0;exitX=0.5;exitY=1;exitDx=0;exitDy=0;" edge="1" parent="1" source="N4EmXFboC65G07N66ozC-8" target="N4EmXFboC65G07N66ozC-10">
          <mxGeometry relative="1" as="geometry">
            <mxPoint x="320" y="345" as="targetPoint" />
          </mxGeometry>
        </mxCell>
        <mxCell id="N4EmXFboC65G07N66ozC-11" value="读取历史频控数据" style="edgeLabel;html=1;align=center;verticalAlign=middle;resizable=0;points=[];" vertex="1" connectable="0" parent="N4EmXFboC65G07N66ozC-9">
          <mxGeometry x="0.0054" y="-3" relative="1" as="geometry">
            <mxPoint as="offset" />
          </mxGeometry>
        </mxCell>
        <mxCell id="N4EmXFboC65G07N66ozC-23" style="edgeStyle=orthogonalEdgeStyle;rounded=0;orthogonalLoop=1;jettySize=auto;html=1;entryX=0;entryY=0.5;entryDx=0;entryDy=0;entryPerimeter=0;startArrow=none;startFill=0;exitX=0.25;exitY=1;exitDx=0;exitDy=0;" edge="1" parent="1" source="N4EmXFboC65G07N66ozC-8" target="N4EmXFboC65G07N66ozC-22">
          <mxGeometry relative="1" as="geometry" />
        </mxCell>
        <mxCell id="N4EmXFboC65G07N66ozC-8" value="频控" style="rounded=0;whiteSpace=wrap;html=1;fillColor=#dae8fc;strokeColor=#6c8ebf;" vertex="1" parent="1">
          <mxGeometry x="165" y="330" width="70" height="30" as="geometry" />
        </mxCell>
        <mxCell id="N4EmXFboC65G07N66ozC-10" value="jimdb" style="shape=cylinder3;whiteSpace=wrap;html=1;boundedLbl=1;backgroundOutline=1;size=15;" vertex="1" parent="1">
          <mxGeometry x="350" y="370" width="100" height="50" as="geometry" />
        </mxCell>
        <mxCell id="N4EmXFboC65G07N66ozC-15" style="edgeStyle=orthogonalEdgeStyle;rounded=0;orthogonalLoop=1;jettySize=auto;html=1;startArrow=none;startFill=0;" edge="1" parent="1" source="N4EmXFboC65G07N66ozC-12">
          <mxGeometry relative="1" as="geometry">
            <mxPoint x="600" y="270" as="targetPoint" />
          </mxGeometry>
        </mxCell>
        <mxCell id="N4EmXFboC65G07N66ozC-30" value="前台曝光消息转化" style="edgeLabel;html=1;align=center;verticalAlign=middle;resizable=0;points=[];" vertex="1" connectable="0" parent="N4EmXFboC65G07N66ozC-15">
          <mxGeometry x="-0.4909" y="-1" relative="1" as="geometry">
            <mxPoint x="1" y="11" as="offset" />
          </mxGeometry>
        </mxCell>
        <mxCell id="N4EmXFboC65G07N66ozC-12" value="上报服务" style="rounded=0;whiteSpace=wrap;html=1;" vertex="1" parent="1">
          <mxGeometry x="540" y="155" width="120" height="60" as="geometry" />
        </mxCell>
        <mxCell id="N4EmXFboC65G07N66ozC-14" style="edgeStyle=orthogonalEdgeStyle;rounded=0;orthogonalLoop=1;jettySize=auto;html=1;entryX=0;entryY=0.5;entryDx=0;entryDy=0;startArrow=none;startFill=0;" edge="1" parent="1" source="N4EmXFboC65G07N66ozC-13" target="N4EmXFboC65G07N66ozC-12">
          <mxGeometry relative="1" as="geometry" />
        </mxCell>
        <mxCell id="N4EmXFboC65G07N66ozC-29" value="上报前台&lt;br&gt;曝光" style="edgeLabel;html=1;align=center;verticalAlign=middle;resizable=0;points=[];" vertex="1" connectable="0" parent="N4EmXFboC65G07N66ozC-14">
          <mxGeometry x="0.1" y="3" relative="1" as="geometry">
            <mxPoint x="-4" y="3" as="offset" />
          </mxGeometry>
        </mxCell>
        <mxCell id="N4EmXFboC65G07N66ozC-13" value="弹窗曝光" style="rounded=0;whiteSpace=wrap;html=1;" vertex="1" parent="1">
          <mxGeometry x="340" y="155" width="120" height="60" as="geometry" />
        </mxCell>
        <mxCell id="N4EmXFboC65G07N66ozC-17" style="edgeStyle=orthogonalEdgeStyle;rounded=0;orthogonalLoop=1;jettySize=auto;html=1;entryX=1;entryY=0;entryDx=0;entryDy=30;entryPerimeter=0;startArrow=none;startFill=0;exitX=0.5;exitY=1;exitDx=0;exitDy=0;" edge="1" parent="1" source="N4EmXFboC65G07N66ozC-16" target="N4EmXFboC65G07N66ozC-10">
          <mxGeometry relative="1" as="geometry" />
        </mxCell>
        <mxCell id="N4EmXFboC65G07N66ozC-31" value="前台曝光消息解析存储" style="edgeLabel;html=1;align=center;verticalAlign=middle;resizable=0;points=[];" vertex="1" connectable="0" parent="N4EmXFboC65G07N66ozC-17">
          <mxGeometry x="-0.6636" y="2" relative="1" as="geometry">
            <mxPoint as="offset" />
          </mxGeometry>
        </mxCell>
        <mxCell id="N4EmXFboC65G07N66ozC-16" value="消费服务" style="rounded=0;whiteSpace=wrap;html=1;" vertex="1" parent="1">
          <mxGeometry x="540" y="270" width="120" height="60" as="geometry" />
        </mxCell>
        <mxCell id="N4EmXFboC65G07N66ozC-22" value="诺曼底频控配置" style="shape=note;whiteSpace=wrap;html=1;backgroundOutline=1;darkOpacity=0.05;" vertex="1" parent="1">
          <mxGeometry x="361" y="460" width="80" height="100" as="geometry" />
        </mxCell>
        <mxCell id="N4EmXFboC65G07N66ozC-28" style="edgeStyle=orthogonalEdgeStyle;rounded=0;orthogonalLoop=1;jettySize=auto;html=1;startArrow=none;startFill=0;" edge="1" parent="1" source="N4EmXFboC65G07N66ozC-24">
          <mxGeometry relative="1" as="geometry">
            <mxPoint x="440" y="510" as="targetPoint" />
          </mxGeometry>
        </mxCell>
        <mxCell id="N4EmXFboC65G07N66ozC-24" value="Actor" style="shape=umlActor;verticalLabelPosition=bottom;verticalAlign=top;html=1;outlineConnect=0;" vertex="1" parent="1">
          <mxGeometry x="585" y="480" width="30" height="60" as="geometry" />
        </mxCell>
      </root>
    </mxGraphModel>
  </diagram>
</mxfile>
